<?xml version="1.0" encoding="utf-8"?>
<COLLADA xmlns="http://www.collada.org/2005/11/COLLADASchema" version="1.4.1" xmlns:xsi="http://www.w3.org/2001/XMLSchema-instance">
  <asset>
    <contributor>
      <author>Husarion UGV</author>
      <authoring_tool>Custom DAE Generator</authoring_tool>
    </contributor>
    <created>2025-01-01T00:00:00</created>
    <modified>2025-01-01T00:00:00</modified>
    <unit name="meter" meter="1"/>
    <up_axis>Z_UP</up_axis>
  </asset>
  
  <library_materials>
    <material id="ouster_material" name="ouster_material">
      <instance_effect url="#ouster_material-effect"/>
    </material>
  </library_materials>
  
  <library_effects>
    <effect id="ouster_material-effect">
      <profile_COMMON>
        <technique sid="common">
          <phong>
            <diffuse>
              <color sid="diffuse">0.3 0.3 0.3 1</color>
            </diffuse>
            <specular>
              <color sid="specular">0.5 0.5 0.5 1</color>
            </specular>
            <shininess>
              <float sid="shininess">20</float>
            </shininess>
          </phong>
        </technique>
      </profile_COMMON>
    </effect>
  </library_effects>
  
  <library_geometries>
    <geometry id="ouster_os0-mesh" name="ouster_os0">
      <mesh>
        <source id="ouster_os0-mesh-positions">
          <float_array id="ouster_os0-mesh-positions-array" count="72">
            <!-- Main cylinder body -->
            0.0425 0 0 -0.0425 0 0 0.03 0.03 0 -0.03 0.03 0 -0.03 -0.03 0 0.03 -0.03 0
            0.0425 0 0.073 -0.0425 0 0.073 0.03 0.03 0.073 -0.03 0.03 0.073 -0.03 -0.03 0.073 0.03 -0.03 0.073
            <!-- Top sensor dome -->
            0.035 0 0.073 -0.035 0 0.073 0.025 0.025 0.073 -0.025 0.025 0.073 -0.025 -0.025 0.073 0.025 -0.025 0.073
            0.02 0 0.09 -0.02 0 0.09 0.014 0.014 0.09 -0.014 0.014 0.09 -0.014 -0.014 0.09 0.014 -0.014 0.09
          </float_array>
          <technique_common>
            <accessor source="#ouster_os0-mesh-positions-array" count="24" stride="3">
              <param name="X" type="float"/>
              <param name="Y" type="float"/>
              <param name="Z" type="float"/>
            </accessor>
          </technique_common>
        </source>
        
        <source id="ouster_os0-mesh-normals">
          <float_array id="ouster_os0-mesh-normals-array" count="72">
            1 0 0 -1 0 0 0.707 0.707 0 -0.707 0.707 0 -0.707 -0.707 0 0.707 -0.707 0
            1 0 0 -1 0 0 0.707 0.707 0 -0.707 0.707 0 -0.707 -0.707 0 0.707 -0.707 0
            1 0 0 -1 0 0 0.707 0.707 0 -0.707 0.707 0 -0.707 -0.707 0 0.707 -0.707 0
            1 0 0 -1 0 0 0.707 0.707 0 -0.707 0.707 0 -0.707 -0.707 0 0.707 -0.707 0
          </float_array>
          <technique_common>
            <accessor source="#ouster_os0-mesh-normals-array" count="24" stride="3">
              <param name="X" type="float"/>
              <param name="Y" type="float"/>
              <param name="Z" type="float"/>
            </accessor>
          </technique_common>
        </source>
        
        <vertices id="ouster_os0-mesh-vertices">
          <input semantic="POSITION" source="#ouster_os0-mesh-positions"/>
        </vertices>
        
        <triangles material="ouster_material" count="40">
          <input semantic="VERTEX" source="#ouster_os0-mesh-vertices" offset="0"/>
          <input semantic="NORMAL" source="#ouster_os0-mesh-normals" offset="1"/>
          <p>
            <!-- Main body sides -->
            0 0 6 6 1 1 0 0  1 1 7 7 6 6 1 1
            2 2 8 8 3 3 2 2  3 3 9 9 8 8 3 3
            4 4 10 10 5 5 4 4  5 5 11 11 10 10 5 5
            6 6 0 0 7 7 6 6  7 7 1 1 0 0 7 7
            <!-- Bottom face -->
            0 0 1 1 2 2 0 0  2 2 3 3 1 1 2 2
            3 3 4 4 5 5 3 3  5 5 0 0 4 4 5 5
            <!-- Top transition -->
            6 6 7 7 8 8 6 6  8 8 9 9 7 7 8 8
            9 9 10 10 11 11 9 9  11 11 6 6 10 10 11 11
            <!-- Sensor dome sides -->
            12 12 18 18 13 13 12 12  13 13 19 19 18 18 13 13
            14 14 20 20 15 15 14 14  15 15 21 21 20 20 15 15
            16 16 22 22 17 17 16 16  17 17 23 23 22 22 17 17
            18 18 12 12 19 19 18 18  19 19 13 13 12 12 19 19
            <!-- Top sensor dome -->
            18 18 19 19 20 20 18 18  20 20 21 21 19 19 20 20
            21 21 22 22 23 23 21 21  23 23 18 18 22 22 23 23
          </p>
        </triangles>
      </mesh>
    </geometry>
  </library_geometries>
  
  <library_visual_scenes>
    <visual_scene id="Scene" name="Scene">
      <node id="ouster_os0" name="ouster_os0" type="NODE">
        <translate sid="location">0 0 0</translate>
        <rotate sid="rotationZ">0 0 1 0</rotate>
        <rotate sid="rotationY">0 1 0 0</rotate>
        <rotate sid="rotationX">1 0 0 0</rotate>
        <scale sid="scale">1 1 1</scale>
        <instance_geometry url="#ouster_os0-mesh" name="ouster_os0">
          <bind_material>
            <technique_common>
              <instance_material symbol="ouster_material" target="#ouster_material"/>
            </technique_common>
          </bind_material>
        </instance_geometry>
      </node>
    </visual_scene>
  </library_visual_scenes>
  
  <scene>
    <instance_visual_scene url="#Scene"/>
  </scene>
</COLLADA>
